/* XPM */
static char *_9f28695b38f490ac834c1f384b02893gFLhRAaLXff00Kb7[] = {
/* columns rows colors chars-per-pixel */
"128 128 38 1 ",
"  c #2B230F",
". c #3B2F17",
"X c gray20",
"o c #373737",
"O c #43331B",
"+ c #4B3B1B",
"@ c #573F1F",
"# c #5F4323",
"$ c #6F4B27",
"% c #774F2B",
"& c #83532F",
"* c #875333",
"= c #8B5B33",
"- c #935F37",
"; c #9F633B",
": c #A3673F",
"> c #AB6B43",
", c #B77347",
"< c #BF7B4B",
"1 c #C3774B",
"2 c #CB7F4F",
"3 c #D38353",
"4 c #DF8B57",
"5 c #EB8F5B",
"6 c #F3975F",
"7 c #FFAB5F",
"8 c #FF9F63",
"9 c #EBA377",
"0 c #FFA773",
"q c #FFB383",
"w c #EFBB9B",
"e c #FFBB93",
"r c #FFBF9F",
"t c #FFC7A7",
"y c #FFCFB3",
"u c #FFD7BF",
"i c #FFDBC7",
"p c #FFE3D3",
/* pixels */
"OOOO>6qrrrrrrrrrrrq062:=#O@=35rrrrrrrrrrrrrrrrrrrrrrrrrrrr<<;%  @@&85888888544444444443<<<<<;&@@  @@=qeeeeeeeeeeqeeeeq0033-+  OO",
"OOOO>6qrrrrrrrrrrrq062;=#O@=35rrrrrrrrrrqqqqqqqqqqqqqqqqqq<<;%  @@-358888885444444444433111,:*#@. @@=qeeeeeeeeeeeeeqqq0043-+  OO",
"OOOO>6qeyyttttttttq04<;=#O@=38tteeeeeeqqqqqqqqqqqqqqqqqq0022:%OO@@&260qq0886544444444443321,:=$@OO@@=9qeeeeeeeeeqqqqqq0843-+  OO",
"OOOO>6qeeeeeeeeeeeq04<:=#O@=38tteeeeeeqqq0000000000000000022:%OO@@&160qq086554444333333332<,:-%#OO@@=9qeeeeeeeeeqqqqqq084<-+  OO",
"OOOO>6qerreeeeeeeeq042:=#O@=38tteeqqqq00000000000000000086<<:%OO@@&,50006544433321111<<<,,>:;=%#OO@@=4qqqqqqqqqqqqqqq0863,-+  OO",
"OOOO>6qerreeeeeeeeq042;=#O@=38tteeqqqq00888888888888880086<<:%OO@@&>34444433211<<,,,>>::::;;-=%#OO@@=40qqq000000000000643<-+  OO",
"OOOO>6qeqqqqqqqqq0863<;=#O@=38ttqq000066666688888888888086<<:%OO@@%=><11<,,>>::::::;------==&%##++@@=4000888888888888664<,=+  OO",
"OOOO>6qeqqqqq00080863<;=#O@=38ttqq000066666666888888888066<<:%OO@@#%&*==**&&&&%%%&&&%%%%%%%%$#@+++@@=3886666666666666643,>=+  OO",
"OOOO>6qeqq00000008652,-&#O@=38ttqq0000886666666866888888642,:%OO++++@@@@++OOOOOOOOOOOOOOOOOOOOOO@@@@=3666644444444444432,:&+  OO",
"OOOO>6qeqq00000008652,-&#O@=38ttqq0000886666666666668866642,:%OO+++@@###@@@+++++++++++++++++++++@@@@=266644444444444433<>>&+  OO",
"OOOO>6qq008888888664<>=%#O@=38rrqq8888888888886666668664442,:%OO++@@##$$$$$$######@@@@@@@@@@@@@@@@@@=35544333333333333<<>:%+  OO",
"OOOO>6qq008888866542<>=%#O@=38rrqq8888888888686666666655442,:%OO++@@##$$$$$$######@@@@@@@@@@@@@@@@@@=34444333333333333<,>-%+  OO",
"OOOO>6qq666666665542<>=%#O@=38ttqq887777888888886666665544<,:%OO@@$-<3<3449999999944444433<<,<>-&#@@=<3433333333333332<,:;%+  OO",
"OOOO>6qq666555555533,>*%#O@=38ttqq887777888888686666665554<,:%OO@@=<60qqrrrreeeeeeeeeeeeeeq6553>=%@@=<333333222222222<,,:;%+  OO",
"OOOO>600665544554432,:*%#O@=38rrqq887788070800888866666555<,:%OO##>49qerrrrreerrrrrrrqqqqqe08453:%@@=,3322<<<<<<<<<<<<,,--%+  OO",
"OOOO>600665544554232>:*%#O@=38rrqq887000070088886866666555<,:%OO##,6qqrrrrrreerrrrrrrrreeqeq0636:&@@=,<2<<<<<<<<<<<<<,,>--%+  OO",
"OOOO>60055444444333<>;&$#O@=38rrqq888088000008808866666654<<:%OO##<9rrrreerrrreerrttytrrqeeq0639:&@@=:,,,,,,,,,,<<<<,,>:--$+  OO",
"OOOO>60055444443333<:;&$#O@=38rrqq88808qq80088888866666554<<:%OO##2qrrrreerrrreerrttttrrreeeq839:%@@=:>>>>>>>>,,,,,,,,>:--$+  OO",
"OOOO>60044333333332,:-&$#O@=38rrqq7700qqq00008888866666544,,:%OO##4qrrrreerrrrrrttttttrrreeeq839:%OO$&--;;;;::>>>>,,>>::--$+  OO",
"OOOO>60044333333332,:-&$#O@=38rrqq7708qqq00008888866666644,,:%OO##4qrrrreerrrrrrttttttrrreeee936:%OOO$&&&&&&==>>>>>>>>>:--$+  OO",
"OOOO>4663322222222<,:-&$#O@=38ee007708000q8008888866665544,,-%OO##4qrreerrrrrreerrttttrrreeee934:%   O+#$$%%$$$$==;;::;;-=$+  OO",
"OOOO>4663322222222<,;-%$#O@=38ee00778008000080888666665543,,-%OO##4qrreerrrrrreerrttttrrreeee934:$      O+%%&==&&$$&=---==$+  OO",
"OOOO>45522<<<<<<<<,:-&$#+O@=38qqqq000000000888886666555543<,:%OO@@4qrrrrrrrreerrttttttrrreeeq633:$         O+#$&==&%$&=-&&$+  OO",
"OOOO>45522<<<<<<<,,:=&$#+O@=38qqqq000000088888666666555543<,:%OO@@4qrrrrrrrreerrttttttrrreeq0533:$            O+@%%%$$$$&&$+  OO",
"OOOO>344<<,,,,,,,>:-&%##OO@=38qqqq000008888666666655554433<,:%OO@@<qyyrrrrrrrrrrttttrrreeqqq043<:$    O          O+#$$$%$$$+  OO",
"OOOO>344<<,,,,,,>>-=%%##OO@=38qqqq000080866668666655554433<,:%OO@@,9yyrrrrrrrrrrttttrrreqqq063<,-$                  O+#####+  OO",
"OOOO:<33,,>>>>:::;=&%$#+OO@=38qq00000088666666665555444422,,:%OO@@-38rrrrrrrrrrreeeeeeeeqq063<,>=@OO                  OO++O ..OO",
"OOOO;>33,,>>>>:::=&&$#@.OO@=46qq00000866666666665555444422,,:%OO@#&,49rrrrrrrrrreeeeeeqqq0842,>;=OOO O*;;;;--==*%$@O        ..OO",
"OOOO=;:<,,::;;---&%%##+.OO@=4400000008665555554444443322,,>>-%OO++$-,340qqqqqqqqqqqqqqq08643,>--%OOOO;3806666644<>&%#@    ..OOOO",
"OOOO*=;>,,::;===*&%%##O.OO@=4400000000665555554444443322,,>>-%OO++@%=:,34699999999996666442,>-=%@OOO-38065544222223<,=O   ..OOOO",
"OOOO************%%$$#+OOOO@=33355555444333333332111111<<,>::=#OOOO+#%=-:,333333333333<<<<,>;--%$OOO=360654332<<,<1244<=+  OOOOOO",
"OOOO#**=-::::-=%%%#@+.OOOO@=33,,,,,,,,,,,,,,,,,,,,,,,,,,>>::=+OOOO++#%&=-:>>;;;>>,,,>>>;;;;;-%$@OO&>466654332<<<,,234<=@  OOOOOO",
"OOOO+#############..OOOO++@@;><<,,,,>>>>;;;;::::::::::::::==+OOO+++++#$%%&=::>>,,,,,,,>>:-==%#@OOO:34886432<<<<<,<<,<,%@  OOOOOO",
"OOOO++OOOOOOOO..OOOOOOOO++@@%%%%%%%%%%%%%%%%%%%%%%%%%%%%%%#+OOOO+++++@@###$$$$%%%%%%%%%%%%$@OOOOO%,3606433<<<<<,,,,::;$@  OOOOOO",
"OOOOOOOOOOOOOOOO++OOOO++@@@@++OOOOOOOOOOOOOOOOOOOOOOOOOOOOOOOO++@@@@@@++OOOOOOOOOOOOOOOOOOOOOOOOO-<486443<,,,,,,>>:-:;$@  OOOOOO",
"OOOOOOOOOOOOOOOO++OOOO++@@@@++OOOOOOOOOOOOOOOOOOOOOOOOOOOOOOOO++@@@@@@++OOOOOOOOOOOOOOOOOOOOOOOOO><46643<,,,,,,>::--:=#+ .OOOOOO",
"222222222<<<<<<<,,;;====%%@@@@@@@@@@@@@@++++@@@@@@@@@@@@@@@@@@@@@@@@@@@@@@@@@@++OOO#*-;::=OOOOOOO><4443<,>::::::--=&;&#+ @*-:,<<",
"yyyyyyyyrreeqqqq885444<<<<>>>>>::::--*%@++++@%----------------------------------&+O$>>,,24$OOOOOO><332,,::-------=&%;#O @&><460q",
"yyuuyyyyyyttttttrrqqqqqqqqqqqqqqqqqq063=#O++@-28eeeeeeeeeeeeqq00886655443322<<>>-#O&>>;;<2&OOOOOO:,,,>:-======*&&&%=&+OO$-<368qe",
"yyuuyyyyyyttttttrreeeeeeeeeeeeeeeeee064<=@++@-228eeeeeeeeeeeqq00884443333322<<>>-&O&>-&&-;&OOOOOO--:--=&%%%%%%%%%%%&#O @&;2480ee",
"yyuuyyttttttttttttttttttttttttttttrrq063-#OO+%522433<<<<<<<<<<<<<<<<<<<<<<<<,,>>-#O$%=&&&&%OOOO+O%%%%%$############@O  #->350qee",
"yyuuyyttttttttttttttttttttttttttttrrq063;%OO++----------------------------------%OOO#@%%##OOOOO+OO@@@@+++++++OOOOOO   O#;,48qeee",
"yyuuyyyyttttttttttrrrrrrrrrrrrrrrrrrq063;%+OOOO################################@OO++OOOOOOOO++OOOO                   O@%:16qetee",
"yyuuyyyyttttttttttrrrrrrrrrrrrrrrrrrq063;%@OOOOO++++OOOOOOOOOOOOOOOOOOOOOOOOOOOOOO++OOOOOOOO++OOOO.....         ....OO#&>28qytee",
"yyyyyyttttttttttrreeeeeeeeeeqqqqeeeeq063;&#OOO++++++++OOOOOOOO++++@@@@@@@@@@@@@@@@@@@@@@@@@@@@@@@@++++..........OOOOOO%-<4qrytee",
"yyyyyyttttttttttrreeeeeeeeeeqqqqeeeeq063;&#OOO++++++++OOOOOOOO++++@@@@@@@@@@@@@@@@@@@@@@@@@@@@@@@@++++++++++OOOOOOOOOO&;26qtytee",
"rrttttttttttttrreeqqqqqqqqqqqqqqqqqqq063;&#O++O#&->>>>>>-&&OOO++#=::,,,,,,,,,,,,,,,,,,,,,,,,,,,,,,,,,,,,,,,>:;%%+.OOOO->39qtytee",
"rrttttttttttttrreeqqqqqqqqqqqqqqqqqqq063;&#O++%=><2<<,>>>;=%OO++#=::>>>>>>>>>>>>>>>>>>>>>>>>>>>>>>>>>>>>>>>:;;%%$+OOOO;,49qtttee",
"eeeerrrrrrrreeqqqqqqqqqqqqqqqqqqqqqqq063;&#OOO->2,>>;;;;>;-%OO++#-::>>>>>>>>>>>>::;;;;;;;;;;;;;;;;------------&&$+..++>28qttttrr",
"eeeerrrrrrrreeqqqqqqqqqqqqqqqqqqqqqqq063;&#OOO-<,>;;;--;;>-%+O++#-::>>>>>>>>>>>>::;;;;;;;;;;;;;;;;------------&&$+..++>2qqtttrrr",
"eeeeeeeeeeeeqqqqqqqqqqqqqqqqqqqq00000863;&#OOO><>>;------;=%@O++#%---------------==================&&&&&&&&&&&%$#O..OO,3qettttee",
"eeeeeeeeeeeeqqqqqqqqqqqqqqqqqqqq00000863;&#OOO>,>>;-------=%@O++#&&&&&&&&&&&&&&&&&&&&&&&&&&&&&&&&&&&&&&&&&&&&&$##...OO26eerretee",
"eeeeqqqqqqqqqqqqqqqqqqqqqqqq000000000652;&#OOO>,>>;-------&%#O++.+$$$$$$$$$$$$$$$$$$$$$$$$$$$$$$$$$$$$$$$$$$$###O OO++46qqeeeeee",
"eeeeqqqqqqqqqqqqqqqqqqqqqqqq000000000652;&#OOO>,>>;-------&%#O++..+++++++++++++++++++++++++++++++++++++++++++++O OOO++58qqeeeeee",
"eeqqqq0000000000000000000000666666666652;&#OOO>,>>;-------&%#OOOOO                                               OOO++58qqqqqqqq",
"qq00006666666666666666666666444444555441;&#OOO>,>>;;------&%#OOOOO                                              OOOO++38q000000q",
"006655444444444444333333333333333344443<;&#OOO>,>>--------=%#OOOO@-,<<2<<<<3<<11<>;*@    +#&-:,,,2222<-=**&$$$+OOOOO@@<408666666",
"443333222222222222111111111111111122221>=%@OOO>,>>--------=%#OOO@:5e000008888888864<-@  +%&-::>>><<<<,>:-:==$$#+OOOO@@;264333333",
">>>>>>>>>>>>>>>>>>::::::::>>>>>>>>>>>>>;&#OOOO>,>>--------=%#O++-5e086665555554433<<>&  %-&>>>>>>>,>>>;;;;-=&&$@OOOO++$;<,>>>>>>",
"******************&&&&&&&&************%#@OOOOO>,>>--------=%#O++3eq0866666565554333<>=@ %-->>>>>>>::::;-;;=&&&$@OOOO+++$&=&&&&&&",
"#####################################++OOO++OO>,>>--------=%#O@-5eq08866655556544333>;# @%==========&&&&%%%%%%$@OOOO++OO        ",
"                                    .OOOOO++OO>,>>--------=%#O#:6rq08886666555544333<;$ O@@@@@@@@@@@@@@@@@@@@@@+OOOO++OO.......X",
"...................................OOOOOOOOOOO>,>>--------=%#O#:8rq00088666565554444<;$  ..O+++@@@@@@@@@@@@@++OOOOO+++OOOOOOOOOO",
"OOOOOOOOOOOOOOOOOOOOOOOOOOOOOOOOOOOOOOOOOOOOOO>,>>--------=%#O#:qyq00088866565555554<;&                      OOOOO++++OOOOOOOOOO",
"OOOO%==,<<<<<<<<<<<<<<<<<<<<<<<<<<<<<<:&$+OOOO>,>>;;------=%#O$,qyq00008868655656554<;& OO@@@@@@@@@@@@@@@@@@@@@@@@@@@@++OOOOOOOO",
"OOO%>24699wwwwwwwwwwwwwwwwwwwwwwwwww996,=%OOOO>,>>;;------=%#O$,qyq00008086666565554<;&.OO@@@@@@@@@@@@@@@@@@@@@@@@@@@@++OOOOOOOO",
"OO&,4qeettyyuuiippppppppppppppppppiyte06<-++OO><>>;;;;----&%#O$,qyq000088886666666542;&.@@@=:2666666666666666666664443,,-#+OOOOO",
"OO*29qeettyyuuiippppppppppppppppppiite06<;++OO><>>;;;;----&%#O$,qyq000088868666666542;&.@@=26rqqqqqqqqqqqqqqqqqqqq863<<3<:$+OOOO",
"OO,6qettyyuuiippppppppppiiuuuuuuuuyyte062:@OOO><>>::;;;;;;=%#O$,qyq0q0008868666666542;&.@@:6rrq00000000000qq06668443<<:;><;#OOOO",
"OO,6qettyyuuiippppppppppiiuuuuuuuuyyte062:#OOO><>>::;;;;;;=%#O$,qyq0q0088887666666542;&.@$2rrq00qeqqq00868006443532,22<:;>-$OOOO",
"OO<9etyyuuiiiiuuuuuuuuuuyyyyttttttttre062:$OOO><>>::::::::=%#O$<quq0q0088888666666543;&.@%4qeq0qqq0866666888642,,:::,24<;==%OOOO",
"OO<9etyyuuiiiiuuuuuuuuuuyyyyttttttttre062:%OOO><>>::::::::=%#O$<quq0q0088878888686543;&.@-4qeqqq0868655555554432,,:::,<3:%=%O.OO",
"OO<9etyyuuuuuuuuyyttttttttttttrrrreeee062:%OOO><>>::::::::-%#O$<quq0q0088888888786543;&.@-40qq086665444444333331<<,,;,<3:&=%+.OO",
"OO<9etyyuuuuuuuuyyttttttttttttrrrreeee062:%OOO><>>::::::::-%#O$<quq0q0008888888886543;&.@-40q086654444443333333211<,,,<3:&=%@.OO",
"OO<9etttyyyyttttttttrrrrrrrreeeeeeeeqq06<:%OOO><>>>>>>>>>>-%#O$<quq0q0008888878886543;&.@-400686544333333333333322<<<,<2>&=%#OOO",
"OO<9etttyyyyttttttttrrrrrrrreeeeeeeeqq05<:%OOO><>>>>>>>>>>-%#O$<quq0q0008788888886543;&.@-408665444333333333333332222<22>&=%#OOO",
"OO<9etyyttttttrrrreeeeqqqqqqqqqqeerrqq04<:%OOO><>>>>>>,,,,-%#O$<quq000007888888886543;&.@-408664433333333333333333322322,&=%#OOO",
"OO<9etyyttttttrrrreeeeqqqqqqqqqqeerrqq64<:%OOO><,,,,,,,,<<-%#O$<quq000007888888086543;&.@-408654333333333333333333333322,==%#OOO",
"OO<9ryyytttteeqqqqqqqqqqqqqqqqeerrrre064<:%OOO><<,,,,,,<<<:%#O$<quq000000088080086543;&.@-408654333444444444434333334433,==%#OOO",
"OO<9ryyytttteeqqqqqqqqqqqqqqqqeerrrre064<:%OOO><<<,<,,,<<<:%#O$<quq000000088000086543;&.@-408654444444444444444444444443,;=%#OOO",
"OO<9ryyyttrreeqqqqqqqqqqqqqqeeeerrrrq064<:%OOO>322<,<,<<22:%#O$<quq000000000000086553;&.@-408654444444444444444444444443<;=%#OOO",
"OO<9ryyyttrreeqqqqqqqqqqqqqqeeeerrrrq864<:%OOO>3222<<<<222:%#O$<quq000000000000086553;&.@-408654444444444445555444444443<;=%#OOO",
"OO<9ryttrreeqqqqqqqqqqeeqqqqeeeeeeeeq864<:%OOO>33333333222:%#O$<quq0qq000000000086652;&.@-408654444444444445555555555543<;=%#OOO",
"OO<9ryttrreeqqqqqqqqqqeeqqqqeeeeeeeeq864<:%OOO;3234444442,:%@O$<quq0qq000000000008652;&.@-468654444444444555555555555543<;=%#OOO",
"OO<9eteeqqqqqqqqqqqqqqqqqqqqqqqqqqqqq863,:%OOO-<23345542<,:%+O$<quq00000000000008865<;&.@-4566665444444555555555555555432;=%#OOO",
"OO<9eteeqqqqqqqqqqqqqqqqqqqqqqqqqqqqq863,:$OOO&;,,<<<<2,,:;%OO$<quq00000000000008866<;&.@-3456665444444444444555555555432;=%#OOO",
"OO<60qqq0000000000000000000000qqqq006642>:#OOO&-;;;;;;;;;-=#OO$<quq00000000000008885<;&.@&234566544444444444455554555533<;=%#OOO",
"OO:30qqq00888888888888888888880000086642>:#OOOO&&=:,<<,:=&#OOO$<quq00000000000000885<;&.@%,2344554444444444444444555533<,;=%@.OO",
"OO*>366666666666666666666666666666664431>=@OOO++@#%%%%%%#@OOOO$<qyq000000q0qqqqq0065<;&.++-,33334444444444444444444322<<>-&%+.OO",
"OO%-<3444444444444444444444444443444221,:*+OOO++OO        OOOO%<qyq00000qqqqqqqq0065<;&.++$:,,332222222222222222222222,>;-&#O.OO",
"OO#%->,,,,,,,,,,,,,,,,,,,,,,,,,,,,,,>>>:-%OOOOOO########@@@@@@%<qtqq000qqqeqqqqq0065,;&.OO@&-:>>,,,,,,,,,,,,,,,,,,,,,>>:--%+O.OO",
"OO+@%&&&&&&&&&&&&&&&&&&&&&&&&&&&&&&&&&&*%@OOOOOO########@@@@@@%<qtqqqqqqeeeeqqqq0066,;&.OOO@$=->:,,,<<<22223322<<<,,,::-&#+OOOOO",
"++++OO@######$$$$$$$$$$$$$$$$$$$$$###@@+OOOOOOOO*>39999943>#@@%<qteeeqqeeeeeeqqq0054>;$.OOOOOO@@#$%&===----------==&%$#@@O.OOOOO",
"++++OOOOOOOOOOOOOOOOOOOOOOOOOOOOOOOOOOOOOOOOOOOO,4qrtyyte93;@@%<qtrreeeeeeeeeqqq0054>;$.OOOOOOO+OO+@@@@@@@@@@@@@@@@+OOOOOOOOOOOO",
"@@@@@@##########@@@@@@@@####$$$$$$##@@@@@@++OOOO39ryyyytq04,@@%<qttrrrrrrreeqqqq0653;;#.++@@@@@@@@@@@@@@@@@@@@@@@@@@@@@@@@@@@O@@",
"@@@@@@##########@@@@@@@@####$$$$$$##@@@@@@++OOOO4qtyttreq64<#@%,ettttttrrreeqqq0653<;%#.++@@@@@@@@@@@@@@@@@@@@@@@@@@@@@@@@@@@@@@",
"8888888888888884<-%+@@%=><3444444444<,>:-*%#+OOO4qttreqq864<&+%,etyyyyytreeqq08653<,=$@.+@@@%-<668q00088888888888888888888888888",
"qqqqqqqqqqqqqqqqq<&%@@*>49qqqqqqqqqqq953,;=&OOOO4qrrqqq8854<*+$,8tyyyytteeqq08853<,:%@+O@@$=,568qqqqqqqqqqqqqqqqqqqqqqqqqqqqqqqq",
"666666666666666663&%@@-<9qrreeeqqqqqq0843>=%OOOO4qeqq088543,&O$>8eytytteqqq06653<,:=@+.+@$=,68qqq080800q8888qq0888888880q0888886",
"55555555555555555<&%O@-<9erreeqqqqqqq0852>=%OOOO3qqq0885443,*O$:6eyyyteqqq08653<,:=#+.+@$=,58qq865555568655688655555556888655555",
"444444444444444442&%O+;3qerrqqq0000008841:&$OOOO26q08854333,*O@:6eeeeeqq085553<,:-%+O+@$=,48q06544444444444444444444444565444444",
"333333333333333332&%O+;4qereqq0888888864<;&$OOOO<5088654332,*O@:6qqrqqq065553<,:-%#O+@$=,246654433333333333333333333333343333333",
"22222222222222222<&%O+:4qeeqq08888886543,;$#OOOO>4888544321,*O@;45qrqq864453<,:-%#O+@$=,2244222222222222222334544322222222222222",
"<<<<<<<<<<<<<<<<<,&%O+:4qqqq088655554431>-$#OOOO;258654331<>*O@;<28q0865443<,:-%#O+@$=,<<<<<<<<<<<<<<<<<<22223333<<<<<<<<,<<<<<<",
",,,,,,,,,,,,,,,,,;&%O+,6qqq088544444331,:=%#OO++=,3444331<,:&.+=:><3554332,,:=%#.+@#*>,,,,,,,,,,,,,,<<<<2233322<<<,,,,,,<22<,,,,",
">>>>>>>>>>>>>>>>>;&%O+>60q086544433321,>;*$@OO++%;<33332<,>;%.+@&:::<2332,>=%#+.O@#&;>>>>>>>>>>>>>>,<<<33333343322<,,,,,><<>>>>>",
":::::::::::::::::=&%OO>600854332211<,>:;=%#OOOOO@%->,<<<,>:-$.O@@%========%%@+.O@@%-:::::::::::::::,,<<<22345543<<<<,,,:::::::::",
";;;;;;;;;;;;;;;;=%&%OO:6865431<<<<,>:;-=%#OOOOOO+#&=;:>>::;*#.OOO@@$%%%%%$#+..O@@@&;;;;;;>>>>>>>>>>>>>>>>>>>>>>>>>>>>>>>;;;;;;;;",
"%%%%%%%%%%%%%%%%%%%%OO;46522,,>>>>;;--%%@OOOOOOOOO@%&=----=&#.OOOOOOOOOOOOO..O@@@@$%%%%%%%%%%%%%%%%%%%%%%%%%%%%%%%%%%%%%%%%%%%%%",
"$$$$$$$$$$$$$$$$$$$+OO=,33,,::;;;;==**%#OOOOOOOOOOO@#%&***&%#.OOOOOOOOOOOOOOO@@@@@.$$&%%%%%%%%%%%%%%%%%%$$$$$$$$$$$$$$$$$$$$$$$$",
"OO..OOOOOOOOOOOOOOOOOO%;,,;;====**$$$$@O+@%,<<::-&OO+##$%%$#@+@@@@@@@@@@@@@@@@@@@@........                                  ..OO",
"OO..OOOOOOOOOOOOOOOOOO+%==*&%$$$$####++O+@<966431>*@.O@@##@O++@@@@@@@@@@@@@@@@@@@@@OOO....                                  ..OO",
"OOOOOOOOOOOOOOOOOOOOOOOOOO++OOOOOOOOOOOO@@40q08642>&OOOOOO@&;><<<<<<<<<<,,,>:::;--=**&%%$#@++++++++++@@@@@@@@@@@@@++++++OOOOOOOO",
"OOOOOOOOOOOOOOOOOOOOOOOOOO++OOOOOOOOOOOO@@4qqq86531:%OOOOO%:360qerrrqqq999964443<<<<<,,,,::::::::-=========&%$$@@@++++++OOOOOOOO",
"OO@%-,<<<<<<<<<34444444444333<<<<<<,;%#+@@4qeq00642,=#OO++,49qqryyyyyytrrrreqqqqq999999999999999999999999999999999999994442,-$+O",
"OO@&<9qqqqqqeeqqqqqqqqqqqqqqqqqqqqq93;+@@@4qeq00643<;%OO++<6qqrtyyyyyytttttrreeeqqqqqqqqqqqqqqqqqqqqqqqqqqqqqqqqqqqqqqqq0053:%+O",
"OO@=4qrrrrrrrreeeeeeeeeeqqqqqqqq88641-#@@@4qqq865431:%  OO4qerttttttttrrrrrrreeeqqqqqqqqeeeeqqqqqqqqqqqqqqqqqqqqqqqqqqqq0063>%O ",
"OO@=9qrrrrrrreqqqqqqqqqqqqqqqqq08531>*@@@@4qqq86433<:%  OO4qrrrreeeeeeqqqqqqqqqqqqqqqqqqqqqqq0000000000000000000000000008641:&O ",
"OO@-9qeeeqqqqqqqq08888888888888843<:=%@@@@4qqq86431<:%  OO4qeeeqqqqqqq88888888888888888888888888888888888888888888888888431,;%O ",
"OO@=9qqqqqqqqq00088666666655555431>;&$@@@@4qqq86331,:%  OO4qqqqq0000088666666666666666666666666666666666666666666655555432<>-$O ",
"OO@=40qqq088888865544444444333331,:=%#++@@4qqq6431<,;%  OO300088866665544444444444444444444444444444444444444444444333332<>:=$.o",
"OO@=4600088655554444444433333221,>;*$#++@@40q0541<,>;%  OO26888865544444444444444444444444443333333333333333333333333221<,:;*$ X",
"OO@*2488655443333333333321111<<,>:=&$#++@@400642<,>:-%  OO,4688654333333333333333333333333332111111111111111111111111<<<,>;-&#.X",
"OO@&<3444433222222222111<<,,,,,>:;*%$#++@@398632,>:;=$  OO:356654333322222222222221111111111<,,,,,,,,,,,,,,,,,,,,,,,,,,>>:-=%# X",
"OO@%>133111<,,,,,,,,,,>>>>::;;;;;-&%##++@@<453<>>:;-*#  OO;1454433111<<<,,,,,,,,,,>>,,,,,,>>>:::::::::::::::::>>::::;;;;;-*&$@ X",
"OO@$-:>,>:::;;;;;;;;;;----=======&$#@@++@@:121>>;-=*%#  OO=>23321<,,>>>:;;;;;;;;;;;;;;;;;;---=================--=========*%$#+ X",
"OO@@#$***&&&&&&&&&%%%%%$$$$$$$$$$#+.OOOO@@%-:;=*&*%%#+  OO%=;:>>:;;--==*&&&&&&&&&&&&&&%%%%%$$$$$$$$$$$$$$$$$$$$$$$$$$$$$$$##@O  ",
"OO@@+#%%$$$$$$$$$$###############++ ..OO@@#%**%%%%$$#@  OO&&--;;--==&&%%$$$$$$$$$$$$$$####################################@@++  "
};
